<?xml version="1.0" encoding="UTF-8" standalone="no"?>
<svg
   xmlns:dc="http://purl.org/dc/elements/1.1/"
   xmlns:cc="http://creativecommons.org/ns#"
   xmlns:rdf="http://www.w3.org/1999/02/22-rdf-syntax-ns#"
   xmlns:svg="http://www.w3.org/2000/svg"
   xmlns="http://www.w3.org/2000/svg"
   viewBox="0 0 1499.9999 1499.9999"
   height="1500"
   width="1500"
   id="svg2"
   version="1.1">
  <metadata
     id="metadata8">
    <rdf:RDF>
      <cc:Work
         rdf:about="">
        <dc:format>image/svg+xml</dc:format>
        <dc:type
           rdf:resource="http://purl.org/dc/dcmitype/StillImage" />
        <dc:title></dc:title>
      </cc:Work>
    </rdf:RDF>
  </metadata>
  <defs
     id="defs6" />
  <path
     id="path830"
     d="m 649.66169,1393.5481 c -11.0098,-12.2455 -10.9687,-22.8294 0.1347,-34.6998 l 6.0887,-6.5093 h 106.3018 106.3017 l 6.0887,6.5093 c 11.1034,11.8704 11.1445,22.4543 0.1347,34.6998 l -6.1056,6.7909 h -106.4195 -106.4196 z m -48.111,-96.0175 c -11.6446,-12.8892 -11.3429,-24.2746 0.9769,-36.8583 l 5.5478,-5.6666 h 154.2066 154.2066 l 6.0785,6.4984 c 10.9529,11.7095 11.5004,21.9745 1.8065,33.8663 l -5.6806,6.9686 -156.0929,0.3388 -156.093,0.3389 z m 0.9769,-96.1916 c -12.3178,-12.5817 -12.6212,-23.9693 -0.9818,-36.8527 l 4.9513,-5.4806 h 155.6898 155.6897 l 4.9513,5.4806 c 11.6394,12.8834 11.336,24.271 -0.9818,36.8527 l -5.5478,5.6667 h -154.1114 -154.1115 z m -1.4019,-98.3393 c -4.6242,-5.2902 -5.9714,-8.0402 -6.9922,-14.2734 -0.6955,-4.2464 -1.2691,-32.3207 -1.2746,-62.3874 l -0.011,-54.66672 -17.5439,-11.3333 c -45.7929,-29.5811 -74.013,-55.4837 -103.5917,-95.08426 -38.4957,-51.5388 -64.8756,-117.7835 -69.6549,-174.9157 -1.898,-22.6902 -0.7781,-76.4694 2.0174,-96.8737 4.9324,-36.0018 20.5614,-81.7425 39.7766,-116.4124 34.0216,-61.385 89.0126,-115.4717 150.3351,-147.8628 32.4943,-17.1638 70.4754,-29.7839 113.3334,-37.6578 18.5988,-3.4169 20.549,-3.5209 51.3333,-2.7361 52.6966,1.3435 73.9729,4.0917 105.6845,13.6512 113.9735,34.3572 204.42311,122.2205 241.57701,234.6694 14.3159,43.3282 18.3991,74.5547 16.9845,129.8888 -0.8211,32.1192 -2.397,44.2093 -9.0151,69.1656 -11.697,44.1089 -27.633,80.0174 -51.2585,115.5011 -13.854,20.8077 -25.4674,34.9437 -43.9108,53.44846 -19.68281,19.7485 -38.11161,34.4583 -65.96791,52.6555 l -21.2721,13.896 -0.085,54.66672 c -0.047,30.0667 -0.6507,58.1193 -1.3418,62.3392 -1.0071,6.149 -2.3956,8.9951 -6.9923,14.3327 l -5.7356,6.6602 -155.3333,-0.059 -155.3334,-0.059 z m 282.4894,-89.6608 c 0.052,-26.58332 0.5161,-52.95852 1.031,-58.61152 1.1659,-12.8002 3.2466,-15.255 21.3108,-25.1428 31.6688,-17.3346 54.9219,-34.64646 77.9089,-58.00286 58.61791,-59.5602 91.84381,-139.2406 91.97791,-220.5762 0.083,-50.6416 -11.2831,-98.1991 -34.5764,-144.6666 -15.5055,-30.9318 -33.0616,-53.7361 -64.87141,-84.2639 -33.6618,-32.3052 -59.5755,-48.6971 -102.834,-65.0482 -38.9101,-14.7075 -70.8041,-20.6879 -110.3307,-20.6879 -70.3024,0 -143.1001,24.8566 -194.5934,66.4434 -12.9698,10.4747 -42.9496,40.4765 -53.5055,53.5447 -34.9388,43.2546 -58.7401,101.7893 -65.0777,160.046 -2.2586,20.7615 -0.8709,64.7493 2.6699,84.6325 5.8371,32.7775 13.6901,56.9846 28.1155,86.6667 28.2457,58.1195 77.4572,109.3075 134.5943,139.99996 6.8259,3.6667 14.8032,8.7733 17.7275,11.3479 5.0884,4.4801 5.3648,5.139 6.4324,15.3334 0.6135,5.8586 1.1479,32.4021 1.1874,58.98542 l 0.072,48.3333 h 121.3334 121.3333 l 0.095,-48.3333 z m 109.3674,-342.44298 c -9.9025,-6.037 -11.1706,-9.436 -14.1359,-37.8904 -3.1401,-30.1315 -8.1653,-49.5227 -18.7353,-72.2954 -17.3372,-37.3522 -50.9328,-74.4281 -88.6243,-97.8051 -27.6292,-17.1362 -54.8413,-25.6172 -95.8408,-29.87 -21.6891,-2.2497 -28.2975,-4.621 -33.2419,-11.928 -6.5334,-9.6553 -5.0346,-21.3104 3.7625,-29.2581 9.1818,-8.2952 21.1818,-9.405 52.0201,-4.8112 43.8824,6.5371 83.1019,22.0448 116.8472,46.2025 60.8155,43.5367 99.39351,106.741 110.35821,180.8057 2.4362,16.4561 2.7957,39.0185 0.7097,44.5395 -1.7373,4.5982 -7.348,10.6803 -12.1823,13.2058 -5.3765,2.8089 -15.57661,2.3727 -20.93721,-0.8953 z m -614.9109,377.57238 c -9.91658,-3.2075 -14.55143,-10.1309 -14.55143,-21.7365 0,-5.7669 0.82956,-8.5198 4.15811,-13.7985 5.37167,-8.519 65.16102,-68.28632 73.77852,-73.75142 7.3023,-4.631 13.9414,-5.3773 21.127,-2.3749 5.8907,2.4612 12.5146,10.3474 14.3187,17.047 2.3607,8.7673 -0.7047,14.5918 -17.2224,32.7233 -17.3656,19.06222 -51.924,52.51492 -60.049,58.12762 -6.2564,4.3219 -15.0739,5.8611 -21.5595,3.7634 z m 750.85631,-1.0349 c -9.0776,-4.6355 -65.5009,-59.85932 -76.7811,-75.14892 -7.3788,-10.0013 -7.0204,-19.6078 1.0753,-28.8284 8.3403,-9.499 19.0299,-11.0376 29.6948,-4.2742 8.6175,5.4651 68.4069,65.23242 73.7785,73.75142 3.3139,5.2555 4.1581,8.041 4.1581,13.7198 0,8.7221 -3.5091,16.1024 -9.2494,19.4532 -6.125,3.5754 -17.0243,4.2132 -22.6762,1.3271 z M 221.3223,672.21562 c -4.50873,-1.3062 -11.86337,-8.7774 -13.89146,-14.1116 -1.84261,-4.8465 -1.50956,-13.384 0.68787,-17.6334 2.91403,-5.6351 10.72581,-11.8691 16.37294,-13.066 6.55232,-1.3887 100.83803,-1.3887 107.39035,0 5.64713,1.1969 13.45892,7.4309 16.37293,13.066 2.4611,4.7592 2.48754,14.9371 0.0509,19.6012 -2.82324,5.404 -9.08902,10.8245 -14.21061,12.2933 -5.76503,1.6534 -107.01288,1.5192 -112.77296,-0.1495 z m 968.337,0.1003 c -4.5363,-1.3907 -10.9309,-7.1514 -13.5915,-12.2441 -2.419,-4.6304 -2.4162,-14.8436 0.01,-19.4658 1.0374,-1.9803 3.9592,-5.5923 6.4928,-8.0268 4.3785,-4.2073 5.3248,-4.4947 19.1137,-5.806 21.7634,-2.0696 95.8323,-0.7342 101.8614,1.8365 5.4783,2.3358 12.9058,10.3112 14.1244,15.1663 1.5182,6.0492 -0.3072,14.9827 -4.0693,19.9151 -7.4059,9.7097 -4.5159,9.2869 -65.3484,9.5614 -30.1001,0.1359 -56.465,-0.2856 -58.5885,-0.9366 z M 445.38959,363.76962 c -8.6558,-3.7682 -68.74163,-62.9519 -78.18186,-77.008 -4.54322,-6.7647 -5.09392,-17.7778 -1.25558,-25.1102 2.9776,-5.6882 12.02583,-10.6459 19.42954,-10.6459 10.3416,0 15.8567,4.2348 50.2588,38.5905 40.9321,40.877 44.3792,45.6512 41.2775,57.1699 -3.7965,14.0994 -19.1631,22.3868 -31.5284,17.0037 z m 615.29201,-0.7721 c -9.2983,-4.9133 -15.905,-16.8582 -13.8509,-25.0424 1.7491,-6.9689 10.0543,-16.5538 41.9025,-48.3591 34.4021,-34.3557 39.9172,-38.5905 50.2588,-38.5905 7.4037,0 16.4519,4.9577 19.4295,10.6459 1.5103,2.8851 2.432,7.4727 2.432,12.1047 0,6.1497 -0.7526,8.6107 -4.2878,14.0208 -5.6356,8.6245 -63.9521,66.8568 -73.1703,73.0648 -8.3348,5.613 -14.9781,6.2435 -22.7138,2.1558 z M 753.52019,236.47772 c -8.0647,-3.7338 -12.4213,-9.1476 -13.9815,-17.3744 -1.6427,-8.6619 -1.7118,-98.2879 -0.082,-106.7644 0.9046,-4.7057 2.4909,-7.2126 7.3538,-11.621 10.3474,-9.380403 20.473,-9.380403 30.6533,0 5.1257,4.7229 6.3099,6.7684 7.4119,12.8029 1.7303,9.4752 1.697,96.4212 -0.04,105.5825 -0.8749,4.6132 -2.6391,8.5003 -5,11.0168 -4.2389,4.518 -12.8538,8.8269 -17.6481,8.8269 -1.8334,0 -5.7334,-1.1112 -8.6667,-2.4693 z"
     style="fill:#000000;stroke-width:1.33333337" />
</svg>
